<svg width="470" height="36" viewBox="0 0 470 36" fill="none" xmlns="http://www.w3.org/2000/svg">
<path fill-rule="evenodd" clip-rule="evenodd" d="M257 18C258.326 18 259.598 18.5268 260.536 19.4645C261.473 20.4021 262 21.6739 262 23C262 24.3261 261.473 25.5979 260.536 26.5355C259.598 27.4732 258.326 28 257 28C255.674 28 254.402 27.4732 253.464 26.5355C252.527 25.5979 252 24.3261 252 23C252 21.6739 252.527 20.4021 253.464 19.4645C254.402 18.5268 255.674 18 257 18V18ZM267 8C268.326 8 269.598 8.52678 270.536 9.46447C271.473 10.4021 272 11.6739 272 13C272 14.3261 271.473 15.5979 270.536 16.5355C269.598 17.4732 268.326 18 267 18C265.674 18 264.402 17.4732 263.464 16.5355C262.527 15.5979 262 14.3261 262 13C262 11.6739 262.527 10.4021 263.464 9.46447C264.402 8.52678 265.674 8 267 8V8ZM283.515 26.34V17.964C283.741 17.671 284.015 17.451 284.339 17.304C284.663 17.158 285.028 17.084 285.434 17.084C286.021 17.084 286.492 17.289 286.846 17.698C287.199 18.106 287.376 18.643 287.376 19.306V26.34H291.034V18.797C291.034 18.534 291.019 18.2713 290.989 18.01C291.23 17.717 291.516 17.49 291.847 17.327C292.178 17.165 292.547 17.085 292.954 17.085C293.541 17.085 294.011 17.289 294.365 17.698C294.719 18.106 294.895 18.643 294.895 19.306V26.34H298.554V18.797C298.554 17.362 298.121 16.182 297.255 15.257C296.39 14.331 295.279 13.868 293.925 13.868C293.142 13.868 292.419 14.015 291.757 14.308C291.102 14.5962 290.516 15.0226 290.041 15.558C289.635 15.0334 289.113 14.6094 288.517 14.319C287.887 14.0141 287.195 13.86 286.496 13.869C285.939 13.869 285.408 13.953 284.904 14.123C284.399 14.293 283.937 14.547 283.515 14.886V14.1H279.857V26.34H283.515V26.34ZM306.683 26.571C307.676 26.571 308.568 26.425 309.358 26.131C310.148 25.839 310.92 25.368 311.673 24.721L309.257 22.522C308.971 22.815 308.625 23.042 308.218 23.205C307.786 23.3717 307.326 23.4542 306.863 23.448C306.171 23.448 305.569 23.266 305.057 22.904C304.555 22.5542 304.163 22.0686 303.927 21.504H312.441V20.578C312.449 19.6677 312.296 18.7632 311.989 17.906C311.688 17.081 311.27 16.375 310.736 15.789C310.201 15.2017 309.551 14.7292 308.828 14.4C308.069 14.0562 307.245 13.8824 306.412 13.891C305.539 13.891 304.722 14.053 303.962 14.377C303.22 14.6881 302.549 15.1444 301.986 15.719C301.42 16.3033 300.972 16.9907 300.665 17.744C300.339 18.5325 300.174 19.3779 300.179 20.231C300.179 21.111 300.349 21.94 300.687 22.719C301.011 23.4763 301.479 24.1637 302.065 24.743C302.658 25.323 303.36 25.7794 304.131 26.086C304.942 26.4122 305.809 26.5769 306.683 26.571V26.571ZM308.85 18.889H303.86C304.04 18.272 304.35 17.794 304.786 17.455C305.222 17.115 305.742 16.945 306.344 16.945C306.931 16.945 307.447 17.123 307.891 17.478C308.335 17.833 308.655 18.303 308.851 18.889H308.85ZM320.118 26.571C321.112 26.571 322.003 26.425 322.794 26.131C323.584 25.839 324.356 25.368 325.108 24.721L322.692 22.522C322.406 22.815 322.06 23.042 321.653 23.205C321.221 23.3716 320.762 23.454 320.299 23.448C319.606 23.448 319.004 23.266 318.492 22.904C317.99 22.554 317.599 22.0684 317.363 21.504H325.876V20.578C325.884 19.6677 325.731 18.7632 325.424 17.906C325.124 17.081 324.706 16.375 324.171 15.789C323.635 15.2017 322.986 14.7292 322.263 14.4C321.504 14.0562 320.68 13.8824 319.847 13.891C318.974 13.891 318.157 14.053 317.397 14.377C316.655 14.6881 315.984 15.1444 315.421 15.719C314.856 16.3034 314.407 16.9908 314.101 17.744C313.775 18.5325 313.61 19.3779 313.615 20.231C313.615 21.111 313.785 21.94 314.123 22.719C314.447 23.4763 314.915 24.1636 315.5 24.743C316.093 25.323 316.795 25.7794 317.566 26.086C318.377 26.4122 319.244 26.5769 320.118 26.571V26.571ZM322.286 18.889H317.296C317.476 18.272 317.785 17.794 318.221 17.455C318.658 17.115 319.177 16.945 319.779 16.945C320.366 16.945 320.882 17.123 321.326 17.478C321.77 17.833 322.09 18.303 322.286 18.889ZM333.621 26.502C333.967 26.502 334.396 26.467 334.908 26.398C335.337 26.3466 335.76 26.2575 336.173 26.132V23.1C335.872 23.192 335.593 23.258 335.337 23.296C335.068 23.3356 334.796 23.355 334.524 23.354C333.937 23.354 333.527 23.242 333.294 23.019C333.06 22.795 332.944 22.413 332.944 21.873V17.223H336.286V14.1H332.944V10.143L329.286 10.953V14.1H326.87V17.223H329.286V22.615C329.286 23.895 329.651 24.863 330.381 25.519C331.111 26.174 332.191 26.502 333.621 26.502V26.502ZM339.663 13.277C340.125 13.277 340.516 13.121 340.835 12.811C341.153 12.501 341.313 12.111 341.313 11.638C341.313 11.175 341.153 10.786 340.835 10.472C340.682 10.3181 340.499 10.1969 340.297 10.1157C340.096 10.0346 339.88 9.99523 339.663 10C339.2 10 338.807 10.157 338.484 10.472C338.327 10.622 338.202 10.8032 338.119 11.004C338.036 11.2047 337.995 11.4207 338 11.638C338 12.11 338.161 12.501 338.484 12.811C338.807 13.121 339.2 13.277 339.663 13.277V13.277Z" fill="#ADADAD"/>
<path d="M22.507 28C23.345 28 24.083 27.817 24.72 27.45C25.3451 27.0938 25.8855 26.6062 26.304 26.021V27.659H29.499V8H26.304V16.191C25.8893 15.6008 25.3482 15.1105 24.72 14.756C24.083 14.394 23.345 14.212 22.507 14.212C21.556 14.212 20.665 14.392 19.837 14.75C19.007 15.108 18.276 15.604 17.643 16.237C17.0122 16.8676 16.5078 17.613 16.157 18.433C15.7961 19.2776 15.6133 20.1876 15.62 21.106C15.62 22.059 15.799 22.95 16.157 23.78C16.515 24.61 17.01 25.342 17.643 25.975C18.2724 26.6063 19.0168 27.1114 19.836 27.463C20.666 27.821 21.556 28 22.507 28V28ZM22.547 24.92C21.902 24.9254 21.2686 24.7482 20.72 24.409C20.1559 24.0634 19.691 23.5774 19.3708 22.9985C19.0506 22.4196 18.886 21.7675 18.893 21.106C18.893 20.398 19.059 19.756 19.391 19.18C19.71 18.6164 20.1643 18.1411 20.713 17.797C21.262 17.4519 21.8986 17.2721 22.547 17.279C23.219 17.279 23.819 17.449 24.347 17.79C24.875 18.131 25.287 18.592 25.584 19.173C25.881 19.754 26.029 20.398 26.029 21.106C26.029 21.806 25.881 22.446 25.584 23.026C25.3043 23.5882 24.8797 24.0656 24.354 24.409C23.83 24.749 23.227 24.92 22.547 24.92V24.92ZM38.914 28C39.708 28 40.4 27.819 40.989 27.456C41.5714 27.1003 42.0624 26.6133 42.423 26.034L42.553 27.659H45.762V14.553H42.567L42.711 16.231C42.2278 15.6342 41.6343 15.1358 40.963 14.763C40.278 14.378 39.499 14.186 38.626 14.186C37.692 14.186 36.819 14.361 36.007 14.71C35.2048 15.0532 34.476 15.5471 33.86 16.165C33.24 16.785 32.76 17.506 32.42 18.328C32.0767 19.1634 31.903 20.0588 31.909 20.962C31.9021 21.8841 32.0791 22.7983 32.4297 23.6512C32.7803 24.504 33.2975 25.2784 33.951 25.929C34.5942 26.5735 35.3545 27.0894 36.191 27.449C37.037 27.817 37.945 28 38.914 28V28ZM39.005 24.92C38.3666 24.922 37.7398 24.7498 37.192 24.422C36.6308 24.092 36.1534 23.6368 35.797 23.092C35.4318 22.5406 35.2073 21.9082 35.143 21.25C35.082 20.516 35.2 19.85 35.496 19.252C35.7799 18.6682 36.2167 18.1723 36.76 17.817C37.3103 17.4571 37.9555 17.2697 38.613 17.279C39.2463 17.2705 39.8687 17.4433 40.407 17.777C40.939 18.109 41.375 18.553 41.716 19.107C42.056 19.662 42.257 20.28 42.318 20.962C42.371 21.687 42.264 22.349 41.998 22.948C41.7484 23.526 41.3426 24.023 40.826 24.383C40.31 24.741 39.704 24.92 39.006 24.92H39.005ZM53.383 27.66V17.75H55.923V14.553H53.383V10.438H50.188V14.553H48.25V17.751H50.188V27.659H53.383V27.66ZM64.656 28C65.451 28 66.142 27.819 66.732 27.456C67.314 27.1002 67.8047 26.6132 68.165 26.034L68.296 27.659H71.504V14.553H68.31L68.455 16.231C67.9715 15.6341 67.3777 15.1357 66.706 14.763C66.021 14.378 65.242 14.186 64.369 14.186C63.435 14.186 62.562 14.361 61.75 14.71C60.9478 15.0532 60.219 15.5471 59.603 16.165C58.983 16.785 58.503 17.506 58.163 18.328C57.82 19.1635 57.6467 20.0589 57.653 20.962C57.6461 21.8841 57.8231 22.7983 58.1737 23.6512C58.5243 24.504 59.0415 25.2784 59.695 25.929C60.3379 26.5734 61.0978 27.0893 61.934 27.449C62.781 27.817 63.688 28 64.657 28H64.656ZM64.748 24.92C64.1093 24.9221 63.4821 24.75 62.934 24.422C62.3731 24.0919 61.8961 23.6367 61.54 23.092C61.1745 22.5407 60.9496 21.9083 60.885 21.25C60.825 20.516 60.942 19.85 61.239 19.252C61.5226 18.6684 61.9591 18.1725 62.502 17.817C63.0523 17.4571 63.6975 17.2697 64.355 17.279C64.9883 17.2705 65.6107 17.4433 66.149 17.777C66.681 18.109 67.118 18.553 67.459 19.107C67.799 19.662 67.999 20.28 68.061 20.962C68.113 21.687 68.006 22.349 67.74 22.948C67.4904 23.526 67.0846 24.023 66.568 24.383C66.053 24.741 65.446 24.92 64.748 24.92V24.92ZM81.613 28C82.573 28 83.47 27.82 84.303 27.463C85.9645 26.7553 87.2864 25.4302 87.99 23.767C88.3498 22.9172 88.5322 22.0028 88.526 21.08C88.526 19.813 88.216 18.657 87.596 17.613C86.9888 16.5817 86.1283 15.7225 85.096 15.117C84.048 14.497 82.887 14.187 81.613 14.187C80.793 14.187 80.066 14.372 79.433 14.743C78.8067 15.1083 78.2645 15.6017 77.842 16.191V8H74.647V27.66H77.842V25.995C78.2642 26.5842 78.806 27.0776 79.432 27.443C80.066 27.814 80.792 28 81.612 28H81.613ZM81.573 24.907C80.91 24.907 80.317 24.737 79.793 24.396C79.2669 24.0527 78.842 23.5753 78.562 23.013C78.261 22.4136 78.1084 21.7507 78.117 21.08C78.117 20.39 78.265 19.754 78.562 19.173C78.8427 18.6096 79.2669 18.1301 79.792 17.783C80.321 17.4365 80.9417 17.2564 81.574 17.266C82.246 17.266 82.861 17.436 83.42 17.777C83.978 18.118 84.424 18.579 84.755 19.16C85.087 19.74 85.253 20.381 85.253 21.08C85.253 21.788 85.087 22.43 84.755 23.007C84.4346 23.5716 83.9776 24.0468 83.426 24.389C82.8706 24.7345 82.2281 24.9142 81.574 24.907H81.573ZM92.494 12.6C92.957 12.6 93.348 12.445 93.667 12.135C93.985 11.825 94.145 11.434 94.145 10.962C94.145 10.499 93.985 10.11 93.667 9.796C93.5138 9.64208 93.3309 9.52088 93.1294 9.43974C92.928 9.35861 92.7121 9.31923 92.495 9.324C92.032 9.324 91.639 9.481 91.316 9.796C91.1587 9.94601 91.0344 10.1272 90.951 10.328C90.8677 10.5287 90.8272 10.7447 90.832 10.962C90.832 11.434 90.993 11.825 91.316 12.135C91.639 12.445 92.032 12.6 92.495 12.6H92.494ZM111.494 17.6C111.957 17.6 112.348 17.445 112.667 17.135C112.985 16.825 113.145 16.434 113.145 15.962C113.145 15.499 112.985 15.11 112.667 14.796C112.514 14.6421 112.331 14.5209 112.129 14.4397C111.928 14.3586 111.712 14.3192 111.495 14.324C111.032 14.324 110.639 14.481 110.316 14.796C110.159 14.946 110.034 15.1272 109.951 15.328C109.868 15.5287 109.827 15.7447 109.832 15.962C109.832 16.434 109.993 16.825 110.316 17.135C110.639 17.445 111.032 17.6 111.495 17.6H111.494ZM6.599 27.324C8.434 27.324 9.984 26.708 11.249 25.478C12.513 24.248 13.145 22.696 13.145 20.824C13.145 18.986 12.513 17.444 11.248 16.196C9.984 14.948 8.434 14.324 6.598 14.324C4.763 14.324 3.205 14.948 1.923 16.196C0.641 17.444 0 18.986 0 20.824C0 22.696 0.64 24.247 1.922 25.478C3.204 26.708 4.762 27.324 6.598 27.324H6.599ZM94.079 27.659V14.553H90.884V27.66H94.079V27.659ZM108.478 27.659V24.461H101.905L108.478 17.751V14.553H97.295V17.751H103.881L97.295 24.461V27.659H108.477H108.478Z" fill="#ADADAD"/>
<path d="M152.476 17.85C153.91 17.85 155.191 17.38 156.202 16.563L156.566 17.433H159.855V5.126H156.685L156.249 6.078C155.23 5.238 153.93 4.754 152.476 4.754C148.699 4.754 146 7.467 146 11.28C146 15.105 148.7 17.851 152.476 17.851V17.85ZM153.044 14.096C151.451 14.096 150.28 12.896 150.28 11.289C150.28 9.691 151.441 8.492 153.044 8.492C154.638 8.492 155.809 9.692 155.809 11.289C155.809 12.896 154.638 14.096 153.044 14.096V14.096ZM168.466 17.85C172.114 17.85 174.544 15.607 174.544 12.163V5.138H170.29V11.978C170.29 13.264 169.603 14.042 168.466 14.042C167.33 14.042 166.629 13.277 166.629 11.978V5.138H162.375V12.163C162.375 15.607 164.818 17.85 168.466 17.85ZM182.827 17.863C184.266 17.863 185.547 17.375 186.552 16.533L186.953 17.447H190.101V0.694H185.896V5.589C184.973 5.02248 183.91 4.72657 182.827 4.735C179.037 4.735 176.338 7.467 176.338 11.292C176.338 15.118 179.038 17.863 182.828 17.863H182.827ZM183.397 14.109C181.803 14.109 180.632 12.899 180.632 11.293C180.632 9.685 181.802 8.476 183.396 8.476C184.99 8.476 186.161 9.686 186.161 11.293C186.161 12.9 184.99 14.109 183.396 14.109H183.397ZM196.99 3.598V0H192.8V3.598H196.99V3.598ZM197.022 17.446V5.138H192.77V17.446H197.024H197.022ZM205.902 17.85C209.916 17.85 212.827 15.095 212.827 11.292C212.827 7.477 209.916 4.735 205.903 4.735C201.876 4.735 198.978 7.477 198.978 11.292C198.978 15.095 201.876 17.85 205.903 17.85H205.902ZM215.662 8.277C216.125 8.277 216.515 8.121 216.834 7.811C217.152 7.501 217.312 7.111 217.312 6.638C217.312 6.175 217.152 5.786 216.834 5.472C216.681 5.3182 216.498 5.19707 216.297 5.11594C216.096 5.03481 215.88 4.99537 215.663 5C215.2 5 214.807 5.157 214.484 5.472C214.327 5.62201 214.202 5.80319 214.119 6.00396C214.036 6.20473 213.995 6.42067 214 6.638C214 7.11 214.161 7.501 214.484 7.811C214.807 8.121 215.2 8.277 215.663 8.277H215.662ZM205.902 14.042C204.352 14.042 203.239 12.92 203.239 11.292C203.239 9.665 204.352 8.544 205.903 8.544C207.453 8.544 208.566 9.675 208.566 11.293C208.566 12.92 207.454 14.042 205.903 14.042H205.902ZM166.226 35.902V31.056C167.136 31.5986 168.177 31.8812 169.236 31.873C173.013 31.873 175.712 29.138 175.712 25.303C175.712 21.468 173.012 18.745 169.237 18.745C167.769 18.745 166.462 19.251 165.447 20.126L164.914 19.149H162.021V35.902H166.226V35.902ZM168.668 28.119C167.074 28.119 165.903 26.919 165.903 25.303C165.903 23.686 167.074 22.486 168.668 22.486C170.261 22.486 171.432 23.686 171.432 25.303C171.432 26.92 170.252 28.119 168.668 28.119ZM181.918 31.457V24.884C181.918 23.304 182.72 22.394 184.008 22.394C185.118 22.394 185.618 23.118 185.618 24.538V31.457H189.871V24.045C189.871 20.855 188.049 18.785 185.214 18.785C184.013 18.7901 182.851 19.2042 181.917 19.959V14.704H177.664V31.457H181.917H181.918ZM196.636 17.608V14.01H192.447V17.608H196.636ZM196.669 31.457V19.148H192.415V31.457H196.669ZM203.598 31.457V14.704H199.344V31.457H203.6H203.598ZM212.262 31.861C215.361 31.861 217.859 30.106 218.728 27.297H214.495C214.086 28.017 213.255 28.451 212.262 28.451C210.919 28.451 210.019 27.721 209.742 26.309H218.912C218.967 25.929 218.999 25.557 218.999 25.187C218.999 21.576 216.243 18.745 212.262 18.745C208.386 18.745 205.554 21.52 205.554 25.293C205.554 29.053 208.409 31.861 212.262 31.861V31.861ZM214.809 23.961H209.816C210.16 22.739 211.022 22.067 212.262 22.067C213.546 22.067 214.435 22.731 214.809 23.961Z" fill="#ADADAD"/>
<path d="M422.276 25.143V19.76C422.276 19.25 422.417 18.835 422.7 18.514C422.982 18.193 423.356 18.032 423.823 18.032C424.311 18.032 424.693 18.196 424.971 18.522C425.248 18.848 425.386 19.305 425.386 19.892V25.142H427.624V19.76C427.624 19.42 427.689 19.12 427.818 18.86C427.947 18.599 428.126 18.396 428.357 18.25C428.587 18.105 428.859 18.032 429.171 18.032C429.66 18.032 430.042 18.196 430.319 18.522C430.596 18.848 430.735 19.305 430.735 19.892V25.142H432.973V19.3C432.973 18.329 432.713 17.543 432.195 16.942C431.677 16.342 430.91 16.042 429.895 16.042C429.303 16.042 428.764 16.172 428.279 16.432C427.793 16.692 427.406 17.056 427.119 17.522L427.181 17.426L427.144 17.356C426.968 17.0572 426.734 16.7962 426.457 16.588L426.312 16.485C425.865 16.189 425.292 16.041 424.596 16.041C423.987 16.041 423.437 16.175 422.946 16.444C422.619 16.624 422.336 16.845 422.098 17.11L421.996 17.23V16.255H420.021V25.142H422.276V25.143ZM437.581 25.39C438.349 25.39 438.984 25.257 439.486 24.99C439.876 24.784 440.246 24.476 440.595 24.069L440.609 24.051V25.143H442.567V19.712C442.567 19.306 442.551 18.939 442.518 18.609C442.48 18.2626 442.373 17.9272 442.205 17.622C441.914 17.0495 441.422 16.6044 440.823 16.372C440.214 16.13 439.517 16.009 438.733 16.009C437.663 16.009 436.818 16.239 436.199 16.7C435.591 17.143 435.146 17.7733 434.931 18.494L436.956 19.136C437.098 18.73 437.348 18.448 437.704 18.288C438.061 18.129 438.404 18.05 438.733 18.05C439.325 18.05 439.748 18.173 440 18.42C440.177 18.593 440.292 18.834 440.345 19.144L440.36 19.26L440.003 19.313L439.637 19.368L439.284 19.42C438.708 19.505 438.193 19.594 437.737 19.687C437.282 19.781 436.89 19.887 436.561 20.008C436.083 20.184 435.703 20.402 435.421 20.662C435.138 20.923 434.934 21.223 434.808 21.563C434.678 21.9246 434.614 22.3067 434.618 22.691C434.618 23.184 434.732 23.636 434.96 24.044C435.188 24.453 435.522 24.779 435.964 25.024C436.406 25.268 436.944 25.39 437.581 25.39ZM438.058 23.629C437.8 23.629 437.578 23.59 437.392 23.514C437.219 23.4472 437.068 23.3311 436.96 23.18C436.856 23.0262 436.802 22.8437 436.807 22.658C436.807 22.51 436.839 22.375 436.902 22.255C436.965 22.134 437.064 22.023 437.198 21.921C437.333 21.82 437.51 21.725 437.729 21.637C437.921 21.567 438.143 21.5 438.396 21.44C438.648 21.38 438.98 21.312 439.391 21.238C439.648 21.192 439.955 21.138 440.311 21.078L440.341 21.074V21.081C440.338 21.192 440.333 21.3031 440.327 21.414L440.317 21.6C440.297 21.921 440.231 22.203 440.115 22.444C440.055 22.57 439.941 22.726 439.774 22.913C439.581 23.1186 439.352 23.2874 439.099 23.411C438.817 23.556 438.469 23.629 438.059 23.629H438.058ZM446.978 25.143V20.864L450.055 25.143H452.968L449.545 20.699L452.755 16.256H449.99L446.978 20.535V13.294H444.707L444.69 25.143H446.978V25.143ZM461.946 21.325C462.039 20.25 461.929 19.315 461.616 18.519C461.304 17.723 460.821 17.106 460.168 16.667C459.516 16.229 458.723 16.009 457.79 16.009C456.913 16.009 456.136 16.208 455.462 16.606C454.786 17.0043 454.236 17.5843 453.873 18.28C453.489 18.999 453.297 19.844 453.297 20.815C453.297 21.703 453.494 22.492 453.886 23.18C454.27 23.86 454.834 24.4209 455.516 24.801C456.209 25.194 457.011 25.39 457.922 25.39C458.778 25.39 459.566 25.165 460.288 24.715C461.005 24.2701 461.561 23.6065 461.872 22.822L459.633 22.181C459.469 22.543 459.23 22.82 458.918 23.011C458.605 23.204 458.229 23.3 457.79 23.3C457.094 23.3 456.566 23.073 456.206 22.62C455.958 22.307 455.795 21.904 455.718 21.41L455.706 21.325H461.946V21.325ZM459.681 19.663H455.766L455.782 19.587C455.859 19.264 455.973 18.987 456.127 18.757L456.207 18.647C456.566 18.183 457.127 17.951 457.889 17.951C458.542 17.951 459.012 18.15 459.3 18.548C459.477 18.792 459.6 19.133 459.668 19.57L459.681 19.663ZM466.051 25.143V20.6C466.051 20.26 466.098 19.954 466.191 19.682C466.279 19.4207 466.419 19.1801 466.603 18.975C466.784 18.775 467.006 18.614 467.27 18.493C467.533 18.367 467.828 18.292 468.154 18.267C468.481 18.242 468.767 18.268 469.014 18.345V16.255C468.747 16.2223 468.477 16.2156 468.208 16.235C467.938 16.254 467.678 16.3 467.426 16.375C467.18 16.446 466.945 16.5496 466.726 16.683C466.446 16.847 466.211 17.056 466.019 17.308C465.942 17.409 465.871 17.5146 465.807 17.624L465.772 17.687V16.256H463.797V25.143H466.052H466.051ZM397.972 8C403.438 8 407.971 11.997 408.806 17.228C410.292 18.9303 411.077 21.1337 411 23.3923C410.924 25.6509 409.992 27.7961 408.394 29.3941C406.796 30.992 404.651 31.9233 402.392 31.9996C400.134 32.0759 397.93 31.2915 396.228 29.805C390.998 28.97 387 24.438 387 18.971C387 12.912 391.912 8 397.97 8H397.972ZM402.071 14.171C400.257 14.174 398.487 14.7302 396.998 15.7655C395.509 16.8007 394.371 18.2657 393.736 19.9648C393.101 21.6639 392.999 23.5162 393.445 25.2745C393.89 27.0328 394.862 28.6133 396.229 29.805C397.101 29.9439 397.987 29.9782 398.868 29.907C397.318 29.1751 396.063 27.937 395.311 26.3967C394.558 24.8564 394.353 23.1057 394.729 21.4331C395.104 19.7605 396.039 18.2657 397.377 17.1951C398.716 16.1244 400.38 15.5417 402.094 15.543C403.522 15.5453 404.92 15.9526 406.126 16.7176C407.332 17.4826 408.296 18.574 408.907 19.865C408.695 22.4572 407.569 24.8899 405.731 26.7292C403.892 28.5685 401.459 29.6947 398.867 29.907C400.272 30.5702 401.848 30.7831 403.379 30.5167C404.91 30.2502 406.322 29.5175 407.42 28.4185C408.519 27.3196 409.251 25.9081 409.518 24.3771C409.784 22.8461 409.57 21.2702 408.907 19.865C408.979 18.9852 408.946 18.0999 408.807 17.228C407.969 16.2648 406.934 15.4933 405.772 14.9658C404.61 14.4383 403.347 14.1672 402.071 14.171V14.171Z" fill="#ADADAD"/>
</svg>
